<?xml version="1.0" encoding="UTF-8" standalone="no"?>
<!-- Created with Inkscape (http://www.inkscape.org/) -->

<svg
   xmlns:dc="http://purl.org/dc/elements/1.1/"
   xmlns:cc="http://creativecommons.org/ns#"
   xmlns:rdf="http://www.w3.org/1999/02/22-rdf-syntax-ns#"
   xmlns:svg="http://www.w3.org/2000/svg"
   xmlns="http://www.w3.org/2000/svg"
   xmlns:xlink="http://www.w3.org/1999/xlink"
   xmlns:sodipodi="http://sodipodi.sourceforge.net/DTD/sodipodi-0.dtd"
   xmlns:inkscape="http://www.inkscape.org/namespaces/inkscape"
   width="200"
   height="200"
   id="svg2"
   version="1.1"
   inkscape:version="0.48.4 r9939"
   sodipodi:docname="tool_menu_wall.svg"
   inkscape:export-filename="C:\Users\ragec_000\Work\ShowroomProto\ui\tool_inworld_wall.png"
   inkscape:export-xdpi="115.2"
   inkscape:export-ydpi="115.2">
  <defs
     id="defs4">
    <linearGradient
       id="linearGradient3829">
      <stop
         style="stop-color:#818181;stop-opacity:1;"
         offset="0"
         id="stop3831" />
      <stop
         style="stop-color:#000000;stop-opacity:0;"
         offset="1"
         id="stop3833" />
    </linearGradient>
    <filter
       inkscape:collect="always"
       id="filter3823"
       x="-0.16211098"
       width="1.324222"
       y="-0.12952906"
       height="1.2590581">
      <feGaussianBlur
         inkscape:collect="always"
         stdDeviation="6.8474999"
         id="feGaussianBlur3825" />
    </filter>
    <radialGradient
       inkscape:collect="always"
       xlink:href="#linearGradient3829"
       id="radialGradient3837"
       cx="56.063465"
       cy="-50.136101"
       fx="56.063465"
       fy="-50.136101"
       r="58.115112"
       gradientUnits="userSpaceOnUse"
       gradientTransform="matrix(0.96569458,0,0,1.0345582,1.9232803,1.732615)" />
    <filter
       inkscape:collect="always"
       id="filter3783"
       x="-0.144"
       width="1.288"
       y="-0.144"
       height="1.288">
      <feGaussianBlur
         inkscape:collect="always"
         stdDeviation="7.5857144"
         id="feGaussianBlur3785" />
    </filter>
  </defs>
  <sodipodi:namedview
     id="base"
     pagecolor="#ffffff"
     bordercolor="#666666"
     borderopacity="1.0"
     inkscape:pageopacity="0.0"
     inkscape:pageshadow="2"
     inkscape:zoom="2.8"
     inkscape:cx="-6.8135457"
     inkscape:cy="143.17887"
     inkscape:document-units="px"
     inkscape:current-layer="layer3"
     showgrid="false"
     borderlayer="true"
     inkscape:showpageshadow="false"
     inkscape:window-width="1858"
     inkscape:window-height="1057"
     inkscape:window-x="54"
     inkscape:window-y="-8"
     inkscape:window-maximized="1" />
  <metadata
     id="metadata7">
    <rdf:RDF>
      <cc:Work
         rdf:about="">
        <dc:format>image/svg+xml</dc:format>
        <dc:type
           rdf:resource="http://purl.org/dc/dcmitype/StillImage" />
        <dc:title></dc:title>
      </cc:Work>
    </rdf:RDF>
  </metadata>
  <g
     inkscape:label="bgcolor"
     inkscape:groupmode="layer"
     id="layer1"
     transform="translate(0,-852.36215)"
     style="display:none"
     sodipodi:insensitive="true">
    <rect
       style="fill:#cccccc;fill-opacity:1;stroke:none"
       id="rect2985"
       width="300"
       height="300"
       x="-50"
       y="802.36212" />
  </g>
  <g
     inkscape:groupmode="layer"
     id="layer2"
     inkscape:label="icon_base"
     transform="translate(0,-852.36215)"
     sodipodi:insensitive="true">
    <path
       sodipodi:type="arc"
       style="fill:#000000;fill-opacity:1;stroke:none;filter:url(#filter3783)"
       id="path2995-1"
       sodipodi:cx="-115.35714"
       sodipodi:cy="36.785713"
       sodipodi:rx="63.214287"
       sodipodi:ry="63.214287"
       d="m -52.142853,36.785713 a 63.214287,63.214287 0 1 1 -126.428577,0 63.214287,63.214287 0 1 1 126.428577,0 z"
       transform="matrix(0.98664777,0,0,1.0239323,212.03115,919.01749)" />
    <path
       sodipodi:type="arc"
       style="fill:#ffffff;fill-opacity:1;stroke:none"
       id="path2995"
       sodipodi:cx="-115.35714"
       sodipodi:cy="36.785713"
       sodipodi:rx="63.214287"
       sodipodi:ry="63.214287"
       d="m -52.142853,36.785713 a 63.214287,63.214287 0 1 1 -126.428577,0 63.214287,63.214287 0 1 1 126.428577,0 z"
       transform="matrix(1.0677966,0,0,1.0677966,223.17796,913.08249)" />
    <path
       sodipodi:type="arc"
       style="fill:none;stroke:url(#radialGradient3837);stroke-width:6.12359571;stroke-miterlimit:4;stroke-opacity:1;stroke-dasharray:none"
       id="path3827"
       sodipodi:cx="56.063465"
       sodipodi:cy="-64.154892"
       sodipodi:rx="55.053314"
       sodipodi:ry="55.053314"
       d="m 111.11678,-64.154892 a 55.053314,55.053314 0 1 1 -110.1066291,0 55.053314,55.053314 0 1 1 110.1066291,0 z"
       transform="matrix(1.0091427,0,0,1.0091427,43.423963,1017.1036)" />
  </g>
  <g
     inkscape:groupmode="layer"
     id="layer3"
     inkscape:label="icon"
     style="display:inline">
    <path
       style="font-size:medium;font-style:normal;font-variant:normal;font-weight:normal;font-stretch:normal;text-indent:0;text-align:start;text-decoration:none;line-height:normal;letter-spacing:normal;word-spacing:normal;text-transform:none;direction:ltr;block-progression:tb;writing-mode:lr-tb;text-anchor:start;baseline-shift:baseline;color:#000000;fill:#666666;fill-opacity:1;stroke:none;stroke-width:4.3339386;marker:none;visibility:visible;display:inline;overflow:visible;enable-background:accumulate;font-family:Sans;-inkscape-font-specification:Sans"
       d="m 67.913256,65.822488 a 2.3215589,2.3215589 0 0 0 -2.075512,2.309843 l 0,63.704819 a 2.3215589,2.3215589 0 0 0 2.309844,2.34332 l 63.704832,0 a 2.3215589,2.3215589 0 0 0 2.30984,-2.34332 l 0,-63.704819 a 2.3215589,2.3215589 0 0 0 -2.30984,-2.309843 l -63.704832,0 a 2.3215589,2.3215589 0 0 0 -0.234332,0 z m 2.577652,4.653163 30.195352,0 0,17.708804 -10.344085,0 -19.851267,0 0,-17.708804 z m 32.839962,0 26.2117,0 0,17.708804 -26.2117,0 0,-17.708804 z m -32.839962,20.554264 18.445275,0 0,18.010085 -18.445275,0 0,-18.010085 z m 21.290735,0 37.760927,0 0,18.010085 -37.760927,0 0,-18.010085 z m -21.290735,21.123355 37.057932,0 0,17.37404 -37.057932,0 0,-17.37404 z m 39.903392,0 18.64613,0 0,17.37404 -18.64613,0 0,-17.37404 z"
       id="rect2994"
       inkscape:connector-curvature="0" />
  </g>
</svg>
