<?xml version="1.0" encoding="UTF-8" standalone="no"?>
<!-- Created with Inkscape (http://www.inkscape.org/) -->

<svg
   xmlns:dc="http://purl.org/dc/elements/1.1/"
   xmlns:cc="http://creativecommons.org/ns#"
   xmlns:rdf="http://www.w3.org/1999/02/22-rdf-syntax-ns#"
   xmlns:svg="http://www.w3.org/2000/svg"
   xmlns="http://www.w3.org/2000/svg"
   xmlns:xlink="http://www.w3.org/1999/xlink"
   xmlns:sodipodi="http://sodipodi.sourceforge.net/DTD/sodipodi-0.dtd"
   xmlns:inkscape="http://www.inkscape.org/namespaces/inkscape"
   width="200"
   height="200"
   id="svg2"
   version="1.1"
   inkscape:version="0.48.4 r9939"
   sodipodi:docname="tool_inworld_wallremove.svg"
   inkscape:export-filename="C:\Users\ragec_000\Work\ShowroomProto\ui\tool_inworld_wall.png"
   inkscape:export-xdpi="28.799999"
   inkscape:export-ydpi="28.799999">
  <defs
     id="defs4">
    <linearGradient
       id="linearGradient3829">
      <stop
         style="stop-color:#818181;stop-opacity:1;"
         offset="0"
         id="stop3831" />
      <stop
         style="stop-color:#000000;stop-opacity:0;"
         offset="1"
         id="stop3833" />
    </linearGradient>
    <filter
       inkscape:collect="always"
       id="filter3823"
       x="-0.16211098"
       width="1.324222"
       y="-0.12952906"
       height="1.2590581">
      <feGaussianBlur
         inkscape:collect="always"
         stdDeviation="6.8474999"
         id="feGaussianBlur3825" />
    </filter>
    <radialGradient
       inkscape:collect="always"
       xlink:href="#linearGradient3829"
       id="radialGradient3837"
       cx="56.063465"
       cy="-50.136101"
       fx="56.063465"
       fy="-50.136101"
       r="58.115112"
       gradientUnits="userSpaceOnUse"
       gradientTransform="matrix(0.96569458,0,0,1.0345582,1.9232803,1.732615)" />
    <filter
       inkscape:collect="always"
       id="filter3868"
       x="-0.11999998"
       width="1.24"
       y="-0.12000002"
       height="1.24">
      <feGaussianBlur
         inkscape:collect="always"
         stdDeviation="2.2124176"
         id="feGaussianBlur3870" />
    </filter>
  </defs>
  <sodipodi:namedview
     id="base"
     pagecolor="#ffffff"
     bordercolor="#666666"
     borderopacity="1.0"
     inkscape:pageopacity="0.0"
     inkscape:pageshadow="2"
     inkscape:zoom="2.8"
     inkscape:cx="45.877234"
     inkscape:cy="143.17887"
     inkscape:document-units="px"
     inkscape:current-layer="layer3"
     showgrid="false"
     borderlayer="true"
     inkscape:showpageshadow="false"
     inkscape:window-width="1858"
     inkscape:window-height="1057"
     inkscape:window-x="54"
     inkscape:window-y="-8"
     inkscape:window-maximized="1" />
  <metadata
     id="metadata7">
    <rdf:RDF>
      <cc:Work
         rdf:about="">
        <dc:format>image/svg+xml</dc:format>
        <dc:type
           rdf:resource="http://purl.org/dc/dcmitype/StillImage" />
        <dc:title></dc:title>
      </cc:Work>
    </rdf:RDF>
  </metadata>
  <g
     inkscape:label="bgcolor"
     inkscape:groupmode="layer"
     id="layer1"
     transform="translate(0,-852.36215)"
     sodipodi:insensitive="true"
     style="display:none">
    <rect
       style="fill:#cccccc;fill-opacity:1;stroke:none"
       id="rect2985"
       width="300"
       height="300"
       x="-50"
       y="802.36212" />
  </g>
  <g
     inkscape:groupmode="layer"
     id="layer2"
     inkscape:label="icon_base"
     transform="translate(0,-852.36215)"
     sodipodi:insensitive="true">
    <path
       inkscape:connector-curvature="0"
       style="fill:#000000;fill-opacity:1;stroke:none;filter:url(#filter3823)"
       d="m 99.999999,888.92465 c -27.992243,0 -50.687498,22.69525 -50.687498,50.6875 0,14.97429 6.487491,28.44027 16.8125,37.71875 l 33.874998,38.4687 33.875001,-38.4687 c 10.32501,-9.27848 16.8125,-22.74446 16.8125,-37.71875 0,-27.99225 -22.69526,-50.6875 -50.687501,-50.6875 z"
       id="path2988-1"
       transform="matrix(1.1967202,0,0,1.2398751,-19.672014,-229.45813)" />
    <path
       style="fill:#ffffff;fill-opacity:1;stroke:none"
       d="m 100,858.83581 c -37.167544,0 -67.30185,30.13431 -67.30185,67.30186 0,19.88256 8.613961,37.76242 22.323302,50.0822 L 100,1027.298 144.97855,976.21987 c 13.70934,-12.31978 22.3233,-30.19964 22.3233,-50.0822 0,-37.16755 -30.13432,-67.30186 -67.30185,-67.30186 z"
       id="path2988"
       inkscape:connector-curvature="0" />
    <path
       sodipodi:type="arc"
       style="fill:none;stroke:url(#radialGradient3837);stroke-width:6.12359571;stroke-miterlimit:4;stroke-opacity:1;stroke-dasharray:none"
       id="path3827"
       sodipodi:cx="56.063465"
       sodipodi:cy="-64.154892"
       sodipodi:rx="55.053314"
       sodipodi:ry="55.053314"
       d="m 111.11678,-64.154892 c 0,30.405106 -24.648209,55.0533142 -55.053315,55.0533142 -30.405106,0 -55.0533141,-24.6482082 -55.0533141,-55.0533142 0,-30.405106 24.6482081,-55.053318 55.0533141,-55.053318 30.405106,0 55.053315,24.648212 55.053315,55.053318 z"
       transform="matrix(1.0091427,0,0,1.0091427,43.423964,990.8791)" />
  </g>
  <g
     inkscape:groupmode="layer"
     id="layer3"
     inkscape:label="icon"
     style="display:inline">
    <path
       style="font-size:medium;font-style:normal;font-variant:normal;font-weight:normal;font-stretch:normal;text-indent:0;text-align:start;text-decoration:none;line-height:normal;letter-spacing:normal;word-spacing:normal;text-transform:none;direction:ltr;block-progression:tb;writing-mode:lr-tb;text-anchor:start;baseline-shift:baseline;color:#000000;fill:#666666;fill-opacity:1;stroke:none;stroke-width:4.33393859999999980;marker:none;visibility:visible;display:inline;overflow:visible;enable-background:accumulate;font-family:Sans;-inkscape-font-specification:Sans"
       d="m 68.39763,37.258604 a 2.3215589,2.3215589 0 0 0 -2.075512,2.309843 l 0,63.704823 a 2.3215589,2.3215589 0 0 0 2.309844,2.34332 l 63.704828,0 a 2.3215589,2.3215589 0 0 0 2.30984,-2.34332 l 0,-63.704823 a 2.3215589,2.3215589 0 0 0 -2.30984,-2.309843 l -63.704828,0 a 2.3215589,2.3215589 0 0 0 -0.234332,0 z m 2.577652,4.653163 30.195348,0 0,17.708804 -10.344081,0 -19.851267,0 0,-17.708804 z m 32.839958,0 26.2117,0 0,17.708804 -26.2117,0 0,-17.708804 z m -32.839958,20.554264 18.445275,0 0,18.010087 -18.445275,0 0,-18.010087 z m 21.290735,0 37.760923,0 0,18.010087 -37.760923,0 0,-18.010087 z m -21.290735,21.123355 37.057928,0 0,17.374044 -37.057928,0 0,-17.374044 z m 39.903388,0 18.64613,0 0,17.374044 -18.64613,0 0,-17.374044 z"
       id="rect2994"
       inkscape:connector-curvature="0" />
    <g
       id="g3872"
       transform="matrix(1.0716005,0,0,1.0716005,-6.777337,55.937124)">
      <path
         inkscape:connector-curvature="0"
         id="rect3784-4"
         d="m 78.320037,23.402793 c -1.06848,1.068465 -1.06848,2.78314 0,3.851604 l 12.0313,12.031317 -12.0313,12.031312 c -1.06848,1.068474 -1.06848,2.783149 0,3.851611 l 5.4399,5.439895 c 1.06847,1.068474 2.78314,1.068474 3.8516,0 l 12.03132,-12.031307 12.031313,12.031307 c 1.06847,1.068474 2.78315,1.068474 3.85161,0 l 5.4399,-5.439895 c 1.06848,-1.068474 1.06848,-2.783137 0,-3.851611 L 108.93437,39.285714 120.96568,27.254406 c 1.06848,-1.068473 1.06848,-2.783139 0,-3.851613 l -5.4399,-5.439899 c -1.06846,-1.068465 -2.78314,-1.068474 -3.85161,0 L 99.642857,29.994202 87.611537,17.962894 c -1.06846,-1.068465 -2.78314,-1.068474 -3.8516,0 l -5.43991,5.439899 z"
         style="fill:#800000;fill-opacity:1;stroke:none;display:inline;filter:url(#filter3868)" />
      <path
         inkscape:connector-curvature="0"
         id="rect3784"
         d="m 78.677175,21.402792 c -1.068475,1.068465 -1.068475,2.78314 0,3.851604 L 90.708482,37.285714 78.677175,49.317025 c -1.068475,1.068474 -1.068475,2.783149 0,3.851611 l 5.439906,5.439895 c 1.068464,1.068474 2.783138,1.068474 3.851601,0 L 100,46.577224 112.03131,58.608531 c 1.06847,1.068474 2.78315,1.068474 3.85161,0 l 5.4399,-5.439895 c 1.06848,-1.068474 1.06848,-2.783137 0,-3.851611 L 109.29151,37.285714 121.32282,25.254405 c 1.06848,-1.068473 1.06848,-2.783139 0,-3.851613 l -5.4399,-5.439899 c -1.06846,-1.068465 -2.78314,-1.068474 -3.85161,0 L 100,27.994201 87.96868,15.962893 c -1.068462,-1.068465 -2.783138,-1.068474 -3.8516,0 l -5.439906,5.439899 z"
         style="fill:#d40000;fill-opacity:1;stroke:none" />
    </g>
  </g>
</svg>
